%TF.GenerationSoftware,KiCad,Pcbnew,9.0.5*%
%TF.CreationDate,2025-10-26T18:09:26+01:00*%
%TF.ProjectId,MiniSumoSTM,4d696e69-5375-46d6-9f53-544d2e6b6963,rev?*%
%TF.SameCoordinates,Original*%
%TF.FileFunction,Soldermask,Bot*%
%TF.FilePolarity,Negative*%
%FSLAX46Y46*%
G04 Gerber Fmt 4.6, Leading zero omitted, Abs format (unit mm)*
G04 Created by KiCad (PCBNEW 9.0.5) date 2025-10-26 18:09:26*
%MOMM*%
%LPD*%
G01*
G04 APERTURE LIST*
G04 Aperture macros list*
%AMRoundRect*
0 Rectangle with rounded corners*
0 $1 Rounding radius*
0 $2 $3 $4 $5 $6 $7 $8 $9 X,Y pos of 4 corners*
0 Add a 4 corners polygon primitive as box body*
4,1,4,$2,$3,$4,$5,$6,$7,$8,$9,$2,$3,0*
0 Add four circle primitives for the rounded corners*
1,1,$1+$1,$2,$3*
1,1,$1+$1,$4,$5*
1,1,$1+$1,$6,$7*
1,1,$1+$1,$8,$9*
0 Add four rect primitives between the rounded corners*
20,1,$1+$1,$2,$3,$4,$5,0*
20,1,$1+$1,$4,$5,$6,$7,0*
20,1,$1+$1,$6,$7,$8,$9,0*
20,1,$1+$1,$8,$9,$2,$3,0*%
G04 Aperture macros list end*
%ADD10O,1.550000X0.890000*%
%ADD11O,0.950000X1.250000*%
%ADD12R,1.700000X1.700000*%
%ADD13C,1.700000*%
%ADD14RoundRect,0.250000X0.475000X-0.337500X0.475000X0.337500X-0.475000X0.337500X-0.475000X-0.337500X0*%
%ADD15RoundRect,0.250000X-0.475000X0.337500X-0.475000X-0.337500X0.475000X-0.337500X0.475000X0.337500X0*%
%ADD16RoundRect,0.250000X0.450000X-0.350000X0.450000X0.350000X-0.450000X0.350000X-0.450000X-0.350000X0*%
%ADD17RoundRect,0.250000X-0.450000X0.350000X-0.450000X-0.350000X0.450000X-0.350000X0.450000X0.350000X0*%
%ADD18RoundRect,0.250000X0.350000X0.450000X-0.350000X0.450000X-0.350000X-0.450000X0.350000X-0.450000X0*%
%ADD19RoundRect,0.250000X-0.350000X-0.450000X0.350000X-0.450000X0.350000X0.450000X-0.350000X0.450000X0*%
%ADD20R,0.450000X1.750000*%
%ADD21RoundRect,0.240000X-0.460000X0.360000X-0.460000X-0.360000X0.460000X-0.360000X0.460000X0.360000X0*%
G04 APERTURE END LIST*
D10*
%TO.C,J2*%
X196025000Y-68075000D03*
D11*
X193325000Y-69075000D03*
X193325000Y-74075000D03*
D10*
X196025000Y-75075000D03*
%TD*%
D12*
%TO.C,TF4*%
X121850000Y-73275000D03*
D13*
X124390000Y-73275000D03*
X121850000Y-75815000D03*
X124390000Y-75815000D03*
X121850000Y-78355000D03*
X124390000Y-78355000D03*
%TD*%
D12*
%TO.C,TF1*%
X178925000Y-72785000D03*
D13*
X181465000Y-72785000D03*
X178925000Y-75325000D03*
X181465000Y-75325000D03*
X178925000Y-77865000D03*
X181465000Y-77865000D03*
%TD*%
D12*
%TO.C,TF3*%
X114675000Y-73285000D03*
D13*
X117215000Y-73285000D03*
X114675000Y-75825000D03*
X117215000Y-75825000D03*
X114675000Y-78365000D03*
X117215000Y-78365000D03*
%TD*%
D12*
%TO.C,TF2*%
X186160000Y-72735000D03*
D13*
X188700000Y-72735000D03*
X186160000Y-75275000D03*
X188700000Y-75275000D03*
X186160000Y-77815000D03*
X188700000Y-77815000D03*
%TD*%
D12*
%TO.C,Sw_Pwr1*%
X181625000Y-92525000D03*
D13*
X184165000Y-92525000D03*
%TD*%
D12*
%TO.C,J10*%
X114900000Y-89600000D03*
D13*
X114900000Y-87060000D03*
X114900000Y-84520000D03*
%TD*%
D12*
%TO.C,J4*%
X160300000Y-78465000D03*
D13*
X160300000Y-75925000D03*
X162840000Y-78465000D03*
X162840000Y-75925000D03*
X165380000Y-78465000D03*
X165380000Y-75925000D03*
%TD*%
D12*
%TO.C,Batt_Pin1*%
X186475000Y-100100000D03*
D13*
X186475000Y-102640000D03*
%TD*%
D14*
%TO.C,C5*%
X140700000Y-67462500D03*
X140700000Y-69537500D03*
%TD*%
D15*
%TO.C,C10*%
X160830000Y-100857500D03*
X160830000Y-98782500D03*
%TD*%
%TO.C,C12*%
X147375000Y-100462500D03*
X147375000Y-98387500D03*
%TD*%
%TO.C,C15*%
X117125000Y-99962500D03*
X117125000Y-97887500D03*
%TD*%
%TO.C,C17*%
X130125000Y-100562500D03*
X130125000Y-98487500D03*
%TD*%
D13*
%TO.C,M1*%
X155150000Y-123660000D03*
D12*
X155150000Y-126200000D03*
%TD*%
D13*
%TO.C,M2*%
X148275000Y-123640000D03*
D12*
X148275000Y-121100000D03*
%TD*%
D16*
%TO.C,R1*%
X194375000Y-62975000D03*
X194375000Y-64975000D03*
%TD*%
%TO.C,R2*%
X190875000Y-62975000D03*
X190875000Y-64975000D03*
%TD*%
%TO.C,R3*%
X107075000Y-62800000D03*
X107075000Y-64800000D03*
%TD*%
%TO.C,R4*%
X111075000Y-62800000D03*
X111075000Y-64800000D03*
%TD*%
%TO.C,R5*%
X150000000Y-133200000D03*
X150000000Y-135200000D03*
%TD*%
D17*
%TO.C,R6*%
X152500000Y-135200000D03*
X152500000Y-133200000D03*
%TD*%
D18*
%TO.C,R7*%
X153100000Y-77500000D03*
X155100000Y-77500000D03*
%TD*%
D17*
%TO.C,R8*%
X153250000Y-75362500D03*
X153250000Y-73362500D03*
%TD*%
D19*
%TO.C,R16*%
X121225000Y-88975000D03*
X119225000Y-88975000D03*
%TD*%
D20*
%TO.C,U8*%
X157675000Y-103400000D03*
X157025000Y-103400000D03*
X156375000Y-103400000D03*
X155725000Y-103400000D03*
X155075000Y-103400000D03*
X154425000Y-103400000D03*
X153775000Y-103400000D03*
X153125000Y-103400000D03*
X152475000Y-103400000D03*
X151825000Y-103400000D03*
X151175000Y-103400000D03*
X150525000Y-103400000D03*
X150525000Y-96200000D03*
X151175000Y-96200000D03*
X151825000Y-96200000D03*
X152475000Y-96200000D03*
X153125000Y-96200000D03*
X153775000Y-96200000D03*
X154425000Y-96200000D03*
X155075000Y-96200000D03*
X155725000Y-96200000D03*
X156375000Y-96200000D03*
X157025000Y-96200000D03*
X157675000Y-96200000D03*
%TD*%
D21*
%TO.C,U2*%
X107125000Y-60275000D03*
X112725000Y-60275000D03*
X107125000Y-58475000D03*
X112725000Y-58475000D03*
%TD*%
%TO.C,U3*%
X148200000Y-140600000D03*
X153800000Y-140600000D03*
X148200000Y-138800000D03*
X153800000Y-138800000D03*
%TD*%
D20*
%TO.C,U9*%
X127175000Y-95625000D03*
X126525000Y-95625000D03*
X125875000Y-95625000D03*
X125225000Y-95625000D03*
X124575000Y-95625000D03*
X123925000Y-95625000D03*
X123275000Y-95625000D03*
X122625000Y-95625000D03*
X121975000Y-95625000D03*
X121325000Y-95625000D03*
X120675000Y-95625000D03*
X120025000Y-95625000D03*
X120025000Y-102825000D03*
X120675000Y-102825000D03*
X121325000Y-102825000D03*
X121975000Y-102825000D03*
X122625000Y-102825000D03*
X123275000Y-102825000D03*
X123925000Y-102825000D03*
X124575000Y-102825000D03*
X125225000Y-102825000D03*
X125875000Y-102825000D03*
X126525000Y-102825000D03*
X127175000Y-102825000D03*
%TD*%
D21*
%TO.C,U1*%
X190125000Y-60275000D03*
X195725000Y-60275000D03*
X190125000Y-58475000D03*
X195725000Y-58475000D03*
%TD*%
M02*
