M48
; DRILL file {KiCad 9.0.5} date 2025-10-26T18:09:00+0100
; FORMAT={-:-/ absolute / metric / decimal}
; #@! TF.CreationDate,2025-10-26T18:09:00+01:00
; #@! TF.GenerationSoftware,Kicad,Pcbnew,9.0.5
; #@! TF.FileFunction,MixedPlating,1,2
FMAT,2
METRIC
; #@! TA.AperFunction,Plated,PTH,ViaDrill
T1C0.300
; #@! TA.AperFunction,Plated,PTH,ViaDrill
T2C0.400
; #@! TA.AperFunction,Plated,PTH,ComponentDrill
T3C0.500
; #@! TA.AperFunction,Plated,PTH,ComponentDrill
T4C0.550
; #@! TA.AperFunction,Plated,PTH,ComponentDrill
T5C1.000
; #@! TA.AperFunction,Plated,PTH,ViaDrill
T6C1.600
%
G90
G05
T1
X106.1Y-66.1
X106.1Y-67.6
X106.1Y-69.1
X106.1Y-70.6
X106.1Y-72.1
X106.1Y-73.6
X106.1Y-75.1
X106.1Y-76.6
X106.1Y-84.1
X106.1Y-85.6
X106.1Y-87.1
X106.1Y-102.1
X106.1Y-103.6
X106.1Y-105.1
X106.1Y-106.6
X107.6Y-66.1
X107.6Y-67.6
X107.6Y-69.1
X107.6Y-70.6
X107.6Y-72.1
X107.6Y-73.6
X107.6Y-75.1
X107.6Y-76.6
X107.6Y-84.1
X107.6Y-85.6
X107.6Y-87.1
X107.6Y-100.6
X107.6Y-106.6
X109.075Y-62.525
X109.1Y-63.725
X109.1Y-66.1
X109.1Y-67.6
X109.1Y-69.1
X109.1Y-70.6
X109.1Y-72.1
X109.1Y-73.6
X109.1Y-75.1
X109.1Y-76.6
X109.1Y-84.1
X109.1Y-85.6
X109.1Y-87.1
X109.1Y-88.6
X110.6Y-69.1
X110.6Y-70.6
X110.6Y-72.1
X110.6Y-73.6
X110.6Y-75.1
X110.6Y-76.6
X110.6Y-84.1
X110.6Y-85.6
X110.6Y-87.1
X110.6Y-88.6
X112.1Y-66.1
X112.1Y-87.1
X112.1Y-88.6
X113.6Y-61.6
X113.6Y-66.1
X113.6Y-67.6
X113.6Y-70.6
X113.6Y-81.1
X113.6Y-82.6
X113.6Y-91.6
X113.6Y-93.1
X113.6Y-94.6
X113.6Y-96.1
X113.6Y-97.6
X113.6Y-99.1
X113.6Y-100.6
X113.6Y-106.6
X115.1Y-58.6
X115.1Y-60.1
X115.1Y-61.6
X115.1Y-63.1
X115.1Y-67.6
X115.1Y-81.1
X115.1Y-82.6
X115.1Y-91.6
X115.1Y-93.1
X115.1Y-94.6
X115.1Y-96.1
X115.1Y-97.6
X115.1Y-99.1
X115.1Y-100.6
X115.1Y-102.1
X115.1Y-103.6
X115.1Y-105.1
X115.1Y-106.6
X116.6Y-67.6
X116.6Y-82.6
X116.6Y-84.1
X116.6Y-87.1
X116.6Y-88.6
X116.6Y-90.1
X116.6Y-91.6
X116.6Y-103.6
X116.6Y-105.1
X116.6Y-106.6
X118.1Y-67.6
X118.1Y-84.1
X118.1Y-87.1
X118.1Y-94.6
X118.1Y-96.1
X118.1Y-103.6
X118.1Y-105.1
X118.1Y-106.6
X119.0Y-93.5
X119.6Y-67.6
X119.6Y-105.1
X119.6Y-106.6
X121.1Y-67.6
X121.1Y-82.6
X121.1Y-105.1
X121.1Y-106.6
X122.6Y-67.6
X122.6Y-106.6
X123.675Y-93.35
X123.825Y-92.225
X124.1Y-67.6
X124.1Y-85.6
X124.1Y-88.6
X124.825Y-92.2
X125.6Y-67.6
X127.1Y-67.6
X127.1Y-75.1
X127.1Y-76.6
X128.6Y-67.6
X128.6Y-76.6
X128.6Y-81.1
X129.825Y-95.475
X130.1Y-67.6
X130.1Y-72.1
X130.1Y-87.1
X130.1Y-91.6
X130.125Y-90.425
X130.425Y-88.875
X130.975Y-94.5
X131.45Y-95.6
X131.5Y-73.6
X131.6Y-67.6
X131.6Y-70.6
X131.6Y-72.1
X131.6Y-91.6
X132.425Y-94.975
X133.1Y-67.6
X133.1Y-72.1
X133.1Y-91.6
X133.1Y-100.6
X133.1Y-102.1
X133.8Y-87.0
X134.5Y-85.0
X134.525Y-81.0
X134.6Y-91.6
X134.6Y-100.6
X134.6Y-102.1
X136.1Y-66.1
X136.1Y-70.6
X136.1Y-87.1
X136.1Y-91.6
X136.1Y-100.6
X136.1Y-102.1
X137.6Y-66.1
X137.6Y-67.6
X137.6Y-91.6
X137.6Y-100.6
X137.6Y-102.1
X138.7Y-82.1
X139.1Y-66.1
X139.1Y-91.6
X139.1Y-100.6
X139.1Y-102.1
X140.5Y-83.75
X140.6Y-66.1
X140.6Y-78.1
X140.6Y-91.6
X140.6Y-100.6
X140.6Y-102.1
X142.1Y-66.1
X142.1Y-91.6
X142.1Y-100.6
X142.1Y-102.1
X142.2Y-88.0
X143.05Y-72.562
X143.6Y-66.1
X143.6Y-91.6
X143.6Y-100.6
X143.6Y-102.1
X145.1Y-66.1
X145.1Y-91.6
X145.1Y-100.6
X145.1Y-102.1
X146.475Y-94.6
X146.5Y-93.375
X146.525Y-96.45
X146.6Y-66.1
X146.6Y-91.6
X146.6Y-109.6
X146.6Y-111.1
X146.6Y-112.6
X146.6Y-114.1
X146.6Y-115.6
X146.6Y-117.1
X146.6Y-118.6
X146.6Y-120.1
X146.6Y-121.6
X146.6Y-123.1
X146.6Y-124.6
X146.6Y-126.1
X146.6Y-127.6
X146.6Y-129.1
X146.6Y-130.6
X146.6Y-132.1
X146.6Y-133.6
X146.6Y-135.1
X146.6Y-136.6
X146.6Y-138.1
X146.6Y-139.6
X146.6Y-141.1
X147.8Y-93.425
X147.875Y-94.5
X148.0Y-96.425
X148.1Y-66.1
X148.1Y-91.6
X148.1Y-126.1
X148.1Y-127.6
X148.1Y-129.1
X148.1Y-130.6
X148.1Y-132.1
X149.1Y-103.275
X149.6Y-66.1
X149.6Y-136.6
X151.1Y-66.1
X151.1Y-70.6
X151.1Y-72.1
X151.1Y-75.1
X151.1Y-136.6
X151.6Y-106.1
X151.625Y-105.15
X152.6Y-66.1
X152.6Y-72.1
X152.6Y-88.6
X152.6Y-90.1
X152.6Y-136.6
X152.79Y-94.5
X154.0Y-79.5
X154.0Y-94.48
X154.1Y-66.1
X154.1Y-72.1
X154.1Y-90.1
X154.1Y-129.1
X154.1Y-130.6
X154.4Y-120.05
X154.45Y-107.9
X154.45Y-115.25
X154.45Y-117.75
X154.5Y-110.0
X154.5Y-112.5
X155.5Y-105.2
X155.6Y-66.1
X155.6Y-79.6
X155.6Y-84.1
X155.6Y-129.1
X155.6Y-130.6
X155.6Y-132.1
X155.6Y-133.6
X155.6Y-135.1
X157.1Y-66.1
X157.1Y-79.6
X157.1Y-84.1
X157.5Y-78.25
X158.3Y-96.525
X158.325Y-95.65
X158.475Y-91.825
X158.475Y-92.975
X158.6Y-66.1
X158.6Y-76.6
X158.6Y-78.1
X158.6Y-90.1
X159.65Y-92.9
X159.7Y-91.8
X160.1Y-66.1
X160.1Y-84.1
X160.1Y-90.1
X160.1Y-103.6
X160.1Y-105.1
X160.1Y-106.6
X160.625Y-92.925
X160.7Y-91.8
X161.6Y-66.1
X161.6Y-84.1
X161.6Y-88.6
X161.6Y-90.1
X161.6Y-103.6
X161.6Y-105.1
X161.6Y-106.6
X163.1Y-66.1
X163.1Y-82.6
X163.1Y-84.1
X163.1Y-99.1
X163.1Y-100.6
X163.1Y-102.1
X163.1Y-103.6
X163.1Y-105.1
X163.1Y-106.6
X164.6Y-66.1
X164.6Y-81.1
X164.6Y-82.6
X164.6Y-99.1
X164.6Y-100.6
X164.6Y-102.1
X164.6Y-103.6
X164.6Y-105.1
X164.6Y-106.6
X166.1Y-66.1
X166.1Y-81.1
X166.1Y-100.6
X166.1Y-103.6
X166.1Y-105.1
X166.1Y-106.6
X167.6Y-66.1
X167.6Y-75.1
X167.6Y-76.6
X167.6Y-78.1
X167.6Y-79.6
X167.6Y-84.1
X167.6Y-100.6
X167.6Y-103.6
X167.6Y-105.1
X167.6Y-106.6
X169.1Y-66.1
X169.1Y-82.6
X169.1Y-84.1
X169.1Y-103.6
X169.1Y-105.1
X169.1Y-106.6
X170.6Y-66.1
X170.6Y-76.6
X170.6Y-78.1
X170.6Y-79.6
X170.6Y-81.1
X170.6Y-82.6
X170.6Y-84.1
X170.6Y-99.1
X170.6Y-100.6
X170.6Y-102.1
X170.6Y-103.6
X170.6Y-105.1
X170.6Y-106.6
X171.575Y-92.775
X171.575Y-94.2
X172.05Y-78.075
X172.1Y-66.1
X172.1Y-76.6
X172.1Y-79.6
X172.1Y-81.1
X172.1Y-82.6
X172.1Y-84.1
X172.1Y-103.6
X172.1Y-105.1
X172.1Y-106.6
X173.05Y-92.8
X173.075Y-94.125
X173.15Y-97.45
X173.225Y-96.225
X173.6Y-66.1
X173.6Y-79.6
X173.6Y-81.1
X173.6Y-82.6
X173.6Y-84.1
X173.6Y-103.6
X173.6Y-105.1
X173.6Y-106.6
X174.4Y-92.825
X174.4Y-94.125
X174.7Y-97.47
X174.71Y-96.22
X175.1Y-66.1
X175.1Y-81.1
X175.1Y-82.6
X175.1Y-84.1
X175.1Y-106.6
X175.8Y-94.99
X175.83Y-96.2
X175.85Y-97.48
X176.6Y-66.1
X176.6Y-69.1
X176.6Y-81.1
X176.6Y-82.6
X176.6Y-106.6
X176.96Y-95.03
X177.06Y-97.47
X177.12Y-96.2
X178.1Y-66.1
X178.1Y-69.1
X178.1Y-106.6
X179.25Y-81.225
X179.6Y-66.1
X179.6Y-90.1
X179.6Y-91.6
X179.6Y-106.6
X181.1Y-66.1
X181.1Y-67.6
X181.1Y-90.1
X181.1Y-96.1
X181.1Y-97.6
X181.1Y-106.6
X182.6Y-66.1
X182.6Y-67.6
X182.6Y-90.1
X182.6Y-96.1
X182.6Y-97.6
X182.6Y-106.6
X184.1Y-66.1
X184.1Y-67.6
X184.1Y-90.1
X184.1Y-97.6
X184.1Y-106.6
X185.6Y-66.1
X185.6Y-67.6
X185.6Y-90.1
X185.6Y-91.6
X185.6Y-93.1
X185.6Y-94.6
X185.6Y-106.6
X187.1Y-58.6
X187.1Y-60.1
X187.1Y-61.6
X187.1Y-63.1
X187.1Y-64.6
X187.1Y-66.1
X187.1Y-90.1
X187.1Y-91.6
X187.1Y-93.1
X187.1Y-94.6
X187.1Y-106.6
X188.6Y-64.6
X188.6Y-70.6
X188.6Y-90.1
X188.6Y-91.6
X188.6Y-97.6
X188.6Y-99.1
X188.6Y-100.6
X188.6Y-102.1
X188.6Y-103.6
X188.6Y-105.1
X188.6Y-106.6
X189.45Y-81.3
X190.1Y-61.6
X190.1Y-70.6
X190.1Y-90.1
X190.1Y-100.6
X190.1Y-102.1
X190.1Y-103.6
X190.1Y-105.1
X190.1Y-106.6
X190.5Y-81.975
X191.175Y-80.875
X191.6Y-70.6
X191.6Y-100.6
X191.6Y-102.1
X191.6Y-103.6
X191.6Y-105.1
X191.6Y-106.6
X193.1Y-63.1
X193.1Y-102.1
X193.1Y-103.6
X193.1Y-105.1
X193.1Y-106.6
X194.275Y-76.6
X194.275Y-78.1
X194.275Y-79.6
X194.275Y-81.1
X194.6Y-67.6
X194.6Y-69.1
X194.6Y-70.6
X194.6Y-102.1
X194.6Y-103.6
X194.6Y-105.1
X194.6Y-106.6
X196.1Y-76.6
X196.1Y-78.1
X196.1Y-79.6
X196.1Y-81.1
X196.1Y-102.1
X196.1Y-103.6
X196.1Y-105.1
X196.1Y-106.6
T2
X111.175Y-67.475
X115.4Y-70.9
X117.125Y-97.897
X120.275Y-86.55
X120.539Y-80.536
X122.251Y-82.249
X122.7Y-80.375
X123.4Y-70.9
X124.328Y-80.827
X124.842Y-93.34
X125.891Y-89.516
X126.1Y-92.45
X126.65Y-91.125
X128.2Y-73.8
X129.2Y-73.2
X131.091Y-86.209
X131.7Y-87.999
X132.209Y-85.01
X132.975Y-69.95
X133.448Y-81.61
X136.775Y-76.625
X138.3Y-83.1
X139.65Y-82.417
X140.2Y-72.1
X140.6Y-85.6
X140.7Y-69.537
X141.45Y-80.522
X141.851Y-77.341
X142.662Y-76.755
X143.17Y-67.552
X143.535Y-79.017
X143.7Y-68.4
X145.1Y-77.0
X145.3Y-69.2
X145.5Y-70.2
X145.8Y-75.9
X145.9Y-79.3
X146.4Y-68.4
X148.9Y-81.3
X149.103Y-78.647
X149.892Y-81.176
X150.2Y-78.49
X150.3Y-130.55
X150.568Y-80.385
X150.7Y-87.5
X151.6Y-80.3
X151.9Y-84.3
X152.0Y-131.6
X153.1Y-84.3
X153.25Y-73.362
X153.95Y-88.25
X154.3Y-84.2
X155.1Y-88.1
X155.219Y-98.294
X156.02Y-98.893
X156.338Y-88.037
X156.4Y-75.8
X156.727Y-99.6
X158.6Y-83.5
X158.7Y-80.2
X160.85Y-98.172
X174.2Y-76.5
X174.8Y-69.709
X175.2Y-77.3
X175.4Y-71.29
X176.331Y-77.049
X176.759Y-73.941
X176.809Y-75.291
X177.2Y-103.3
X177.75Y-83.5
X180.05Y-102.7
X184.0Y-86.0
X188.0Y-67.5
X190.7Y-67.05
T5
X114.675Y-73.285
X114.675Y-75.825
X114.675Y-78.365
X114.9Y-84.52
X114.9Y-87.06
X114.9Y-89.6
X117.215Y-73.285
X117.215Y-75.825
X117.215Y-78.365
X121.85Y-73.275
X121.85Y-75.815
X121.85Y-78.355
X124.39Y-73.275
X124.39Y-75.815
X124.39Y-78.355
X148.275Y-121.1
X148.275Y-123.64
X155.15Y-123.66
X155.15Y-126.2
X160.3Y-75.925
X160.3Y-78.465
X162.84Y-75.925
X162.84Y-78.465
X165.38Y-75.925
X165.38Y-78.465
X178.925Y-72.785
X178.925Y-75.325
X178.925Y-77.865
X181.465Y-72.785
X181.465Y-75.325
X181.465Y-77.865
X181.625Y-92.525
X184.165Y-92.525
X186.16Y-72.735
X186.16Y-75.275
X186.16Y-77.815
X186.475Y-100.1
X186.475Y-102.64
X188.7Y-72.735
X188.7Y-75.275
X188.7Y-77.815
T6
X124.5Y-105.5
T3
G00X195.7Y-68.075
M15
G01X196.35Y-68.075
M16
G05
G00X195.7Y-75.075
M15
G01X196.35Y-75.075
M16
G05
T4
G00X193.325Y-69.225
M15
G01X193.325Y-68.925
M16
G05
G00X193.325Y-74.225
M15
G01X193.325Y-73.925
M16
G05
M30
