%TF.GenerationSoftware,KiCad,Pcbnew,9.0.5*%
%TF.CreationDate,2025-10-26T18:09:26+01:00*%
%TF.ProjectId,MiniSumoSTM,4d696e69-5375-46d6-9f53-544d2e6b6963,rev?*%
%TF.SameCoordinates,Original*%
%TF.FileFunction,Paste,Top*%
%TF.FilePolarity,Positive*%
%FSLAX46Y46*%
G04 Gerber Fmt 4.6, Leading zero omitted, Abs format (unit mm)*
G04 Created by KiCad (PCBNEW 9.0.5) date 2025-10-26 18:09:26*
%MOMM*%
%LPD*%
G01*
G04 APERTURE LIST*
G04 Aperture macros list*
%AMRoundRect*
0 Rectangle with rounded corners*
0 $1 Rounding radius*
0 $2 $3 $4 $5 $6 $7 $8 $9 X,Y pos of 4 corners*
0 Add a 4 corners polygon primitive as box body*
4,1,4,$2,$3,$4,$5,$6,$7,$8,$9,$2,$3,0*
0 Add four circle primitives for the rounded corners*
1,1,$1+$1,$2,$3*
1,1,$1+$1,$4,$5*
1,1,$1+$1,$6,$7*
1,1,$1+$1,$8,$9*
0 Add four rect primitives between the rounded corners*
20,1,$1+$1,$2,$3,$4,$5,0*
20,1,$1+$1,$4,$5,$6,$7,0*
20,1,$1+$1,$6,$7,$8,$9,0*
20,1,$1+$1,$8,$9,$2,$3,0*%
G04 Aperture macros list end*
%ADD10RoundRect,0.150000X-0.305000X0.150000X-0.305000X-0.150000X0.305000X-0.150000X0.305000X0.150000X0*%
%ADD11RoundRect,0.062500X-0.062500X0.387500X-0.062500X-0.387500X0.062500X-0.387500X0.062500X0.387500X0*%
%ADD12RoundRect,0.150000X0.305000X-0.150000X0.305000X0.150000X-0.305000X0.150000X-0.305000X-0.150000X0*%
%ADD13RoundRect,0.062500X0.062500X-0.387500X0.062500X0.387500X-0.062500X0.387500X-0.062500X-0.387500X0*%
%ADD14RoundRect,0.250000X0.475000X-0.337500X0.475000X0.337500X-0.475000X0.337500X-0.475000X-0.337500X0*%
%ADD15RoundRect,0.250000X0.525000X-0.475000X0.525000X0.475000X-0.525000X0.475000X-0.525000X-0.475000X0*%
%ADD16RoundRect,0.250000X0.525000X-0.500000X0.525000X0.500000X-0.525000X0.500000X-0.525000X-0.500000X0*%
%ADD17RoundRect,0.100000X0.575000X-0.100000X0.575000X0.100000X-0.575000X0.100000X-0.575000X-0.100000X0*%
%ADD18O,1.550000X0.890000*%
%ADD19O,0.950000X1.250000*%
%ADD20RoundRect,0.250001X-0.507499X-0.944999X0.507499X-0.944999X0.507499X0.944999X-0.507499X0.944999X0*%
%ADD21RoundRect,0.250000X-0.475000X0.337500X-0.475000X-0.337500X0.475000X-0.337500X0.475000X0.337500X0*%
%ADD22RoundRect,0.250000X0.337500X0.475000X-0.337500X0.475000X-0.337500X-0.475000X0.337500X-0.475000X0*%
%ADD23RoundRect,0.250000X-0.337500X-0.475000X0.337500X-0.475000X0.337500X0.475000X-0.337500X0.475000X0*%
%ADD24RoundRect,0.250001X-0.944999X0.507499X-0.944999X-0.507499X0.944999X-0.507499X0.944999X0.507499X0*%
%ADD25RoundRect,0.250001X0.507499X0.944999X-0.507499X0.944999X-0.507499X-0.944999X0.507499X-0.944999X0*%
%ADD26RoundRect,0.250000X0.325000X0.450000X-0.325000X0.450000X-0.325000X-0.450000X0.325000X-0.450000X0*%
%ADD27RoundRect,0.250000X-0.325000X-0.450000X0.325000X-0.450000X0.325000X0.450000X-0.325000X0.450000X0*%
%ADD28RoundRect,0.250000X-0.350000X-0.450000X0.350000X-0.450000X0.350000X0.450000X-0.350000X0.450000X0*%
%ADD29RoundRect,0.250000X0.350000X0.450000X-0.350000X0.450000X-0.350000X-0.450000X0.350000X-0.450000X0*%
%ADD30RoundRect,0.250000X-0.450000X0.350000X-0.450000X-0.350000X0.450000X-0.350000X0.450000X0.350000X0*%
%ADD31RoundRect,0.162500X-0.162500X0.617500X-0.162500X-0.617500X0.162500X-0.617500X0.162500X0.617500X0*%
%ADD32RoundRect,0.375000X0.625000X0.375000X-0.625000X0.375000X-0.625000X-0.375000X0.625000X-0.375000X0*%
%ADD33RoundRect,0.500000X0.500000X1.400000X-0.500000X1.400000X-0.500000X-1.400000X0.500000X-1.400000X0*%
%ADD34RoundRect,0.075000X-0.662500X0.075000X-0.662500X-0.075000X0.662500X-0.075000X0.662500X0.075000X0*%
%ADD35RoundRect,0.075000X-0.075000X0.662500X-0.075000X-0.662500X0.075000X-0.662500X0.075000X0.662500X0*%
G04 APERTURE END LIST*
D10*
%TO.C,Q4*%
X180310000Y-84412500D03*
X179190000Y-84412500D03*
X180310000Y-85162500D03*
X179190000Y-85162500D03*
D11*
X180725000Y-83387500D03*
X180075000Y-83387500D03*
X179425000Y-83387500D03*
X178775000Y-83387500D03*
X178775000Y-86187500D03*
X179425000Y-86187500D03*
X180075000Y-86187500D03*
X180725000Y-86187500D03*
%TD*%
D12*
%TO.C,Q3*%
X175240000Y-101687500D03*
X176360000Y-101687500D03*
X175240000Y-100937500D03*
X176360000Y-100937500D03*
D13*
X174825000Y-102712500D03*
X175475000Y-102712500D03*
X176125000Y-102712500D03*
X176775000Y-102712500D03*
X176775000Y-99912500D03*
X176125000Y-99912500D03*
X175475000Y-99912500D03*
X174825000Y-99912500D03*
%TD*%
D14*
%TO.C,C25*%
X183050000Y-102387500D03*
X183050000Y-100312500D03*
%TD*%
D15*
%TO.C,J2*%
X196025000Y-68550000D03*
D16*
X196025000Y-70575000D03*
X196025000Y-72575000D03*
D15*
X196025000Y-74600000D03*
D17*
X193325000Y-70275000D03*
X193325000Y-70925000D03*
X193325000Y-71575000D03*
X193325000Y-72225000D03*
X193325000Y-72875000D03*
D18*
X196025000Y-68075000D03*
D19*
X193325000Y-69075000D03*
X193325000Y-74075000D03*
D18*
X196025000Y-75075000D03*
%TD*%
D20*
%TO.C,C2*%
X169127500Y-93600000D03*
X165872500Y-93600000D03*
%TD*%
D21*
%TO.C,C6*%
X149650000Y-76600000D03*
X149650000Y-74525000D03*
%TD*%
D14*
%TO.C,C7*%
X136300000Y-79525000D03*
X136300000Y-81600000D03*
%TD*%
D22*
%TO.C,C8*%
X144612500Y-84562500D03*
X146687500Y-84562500D03*
%TD*%
D23*
%TO.C,C9*%
X148687500Y-71812500D03*
X146612500Y-71812500D03*
%TD*%
D24*
%TO.C,C11*%
X160850000Y-101427500D03*
X160850000Y-98172500D03*
%TD*%
%TO.C,C13*%
X173900000Y-89727500D03*
X173900000Y-86472500D03*
%TD*%
%TO.C,C14*%
X147350000Y-101527500D03*
X147350000Y-98272500D03*
%TD*%
%TO.C,C16*%
X117125000Y-101152500D03*
X117125000Y-97897500D03*
%TD*%
%TO.C,C18*%
X130150000Y-101152500D03*
X130150000Y-97897500D03*
%TD*%
D25*
%TO.C,C20*%
X144122500Y-87362500D03*
X147377500Y-87362500D03*
%TD*%
D23*
%TO.C,C21*%
X181287500Y-88500000D03*
X179212500Y-88500000D03*
%TD*%
D14*
%TO.C,C22*%
X187000000Y-83712500D03*
X187000000Y-85787500D03*
%TD*%
D22*
%TO.C,C23*%
X183212500Y-88500000D03*
X185287500Y-88500000D03*
%TD*%
D23*
%TO.C,C24*%
X183587500Y-104850000D03*
X181512500Y-104850000D03*
%TD*%
D21*
%TO.C,C26*%
X172400000Y-102137500D03*
X172400000Y-100062500D03*
%TD*%
%TO.C,C27*%
X133750000Y-79487500D03*
X133750000Y-77412500D03*
%TD*%
D24*
%TO.C,C28*%
X130900000Y-80502500D03*
X130900000Y-77247500D03*
%TD*%
%TO.C,C29*%
X126500000Y-85527500D03*
X126500000Y-82272500D03*
%TD*%
D26*
%TO.C,D1*%
X166375000Y-98700000D03*
X168425000Y-98700000D03*
%TD*%
D27*
%TO.C,D2*%
X137850000Y-73650000D03*
X135800000Y-73650000D03*
%TD*%
D21*
%TO.C,FB1*%
X128000000Y-79862500D03*
X128000000Y-77787500D03*
%TD*%
D28*
%TO.C,R9*%
X138650000Y-84500000D03*
X136650000Y-84500000D03*
%TD*%
D29*
%TO.C,R10*%
X180750000Y-81250000D03*
X182750000Y-81250000D03*
%TD*%
D28*
%TO.C,R11*%
X186500000Y-96000000D03*
X184500000Y-96000000D03*
%TD*%
%TO.C,R12*%
X139700000Y-86600000D03*
X137700000Y-86600000D03*
%TD*%
D29*
%TO.C,R13*%
X166400000Y-102100000D03*
X168400000Y-102100000D03*
%TD*%
%TO.C,R14*%
X131725000Y-73625000D03*
X133725000Y-73625000D03*
%TD*%
D30*
%TO.C,R15*%
X140700000Y-69500000D03*
X140700000Y-67500000D03*
%TD*%
D29*
%TO.C,R17*%
X158425000Y-88825000D03*
X160425000Y-88825000D03*
%TD*%
D31*
%TO.C,U7*%
X181000000Y-102700000D03*
X180050000Y-102700000D03*
X179100000Y-102700000D03*
X179100000Y-100000000D03*
X180050000Y-100000000D03*
X181000000Y-100000000D03*
%TD*%
D32*
%TO.C,U11*%
X170650000Y-85800000D03*
D33*
X164350000Y-88100000D03*
D32*
X170650000Y-88100000D03*
X170650000Y-90400000D03*
%TD*%
D31*
%TO.C,U6*%
X184950000Y-86100000D03*
X184000000Y-86100000D03*
X183050000Y-86100000D03*
X183050000Y-83400000D03*
X184000000Y-83400000D03*
X184950000Y-83400000D03*
%TD*%
D34*
%TO.C,U4*%
X147312500Y-75312500D03*
X147312500Y-75812500D03*
X147312500Y-76312500D03*
X147312500Y-76812500D03*
X147312500Y-77312500D03*
X147312500Y-77812500D03*
X147312500Y-78312500D03*
X147312500Y-78812500D03*
X147312500Y-79312500D03*
X147312500Y-79812500D03*
X147312500Y-80312500D03*
X147312500Y-80812500D03*
D35*
X145900000Y-82225000D03*
X145400000Y-82225000D03*
X144900000Y-82225000D03*
X144400000Y-82225000D03*
X143900000Y-82225000D03*
X143400000Y-82225000D03*
X142900000Y-82225000D03*
X142400000Y-82225000D03*
X141900000Y-82225000D03*
X141400000Y-82225000D03*
X140900000Y-82225000D03*
X140400000Y-82225000D03*
D34*
X138987500Y-80812500D03*
X138987500Y-80312500D03*
X138987500Y-79812500D03*
X138987500Y-79312500D03*
X138987500Y-78812500D03*
X138987500Y-78312500D03*
X138987500Y-77812500D03*
X138987500Y-77312500D03*
X138987500Y-76812500D03*
X138987500Y-76312500D03*
X138987500Y-75812500D03*
X138987500Y-75312500D03*
D35*
X140400000Y-73900000D03*
X140900000Y-73900000D03*
X141400000Y-73900000D03*
X141900000Y-73900000D03*
X142400000Y-73900000D03*
X142900000Y-73900000D03*
X143400000Y-73900000D03*
X143900000Y-73900000D03*
X144400000Y-73900000D03*
X144900000Y-73900000D03*
X145400000Y-73900000D03*
X145900000Y-73900000D03*
%TD*%
M02*
