%TF.GenerationSoftware,KiCad,Pcbnew,9.0.5*%
%TF.CreationDate,2025-10-26T18:07:55+01:00*%
%TF.ProjectId,MiniSumoSTM,4d696e69-5375-46d6-9f53-544d2e6b6963,rev?*%
%TF.SameCoordinates,Original*%
%TF.FileFunction,Legend,Bot*%
%TF.FilePolarity,Positive*%
%FSLAX46Y46*%
G04 Gerber Fmt 4.6, Leading zero omitted, Abs format (unit mm)*
G04 Created by KiCad (PCBNEW 9.0.5) date 2025-10-26 18:07:55*
%MOMM*%
%LPD*%
G01*
G04 APERTURE LIST*
%ADD10C,0.150000*%
%ADD11C,0.100000*%
%ADD12C,0.120000*%
G04 APERTURE END LIST*
D10*
X142739580Y-68333333D02*
X142787200Y-68285714D01*
X142787200Y-68285714D02*
X142834819Y-68142857D01*
X142834819Y-68142857D02*
X142834819Y-68047619D01*
X142834819Y-68047619D02*
X142787200Y-67904762D01*
X142787200Y-67904762D02*
X142691961Y-67809524D01*
X142691961Y-67809524D02*
X142596723Y-67761905D01*
X142596723Y-67761905D02*
X142406247Y-67714286D01*
X142406247Y-67714286D02*
X142263390Y-67714286D01*
X142263390Y-67714286D02*
X142072914Y-67761905D01*
X142072914Y-67761905D02*
X141977676Y-67809524D01*
X141977676Y-67809524D02*
X141882438Y-67904762D01*
X141882438Y-67904762D02*
X141834819Y-68047619D01*
X141834819Y-68047619D02*
X141834819Y-68142857D01*
X141834819Y-68142857D02*
X141882438Y-68285714D01*
X141882438Y-68285714D02*
X141930057Y-68333333D01*
X141834819Y-69238095D02*
X141834819Y-68761905D01*
X141834819Y-68761905D02*
X142311009Y-68714286D01*
X142311009Y-68714286D02*
X142263390Y-68761905D01*
X142263390Y-68761905D02*
X142215771Y-68857143D01*
X142215771Y-68857143D02*
X142215771Y-69095238D01*
X142215771Y-69095238D02*
X142263390Y-69190476D01*
X142263390Y-69190476D02*
X142311009Y-69238095D01*
X142311009Y-69238095D02*
X142406247Y-69285714D01*
X142406247Y-69285714D02*
X142644342Y-69285714D01*
X142644342Y-69285714D02*
X142739580Y-69238095D01*
X142739580Y-69238095D02*
X142787200Y-69190476D01*
X142787200Y-69190476D02*
X142834819Y-69095238D01*
X142834819Y-69095238D02*
X142834819Y-68857143D01*
X142834819Y-68857143D02*
X142787200Y-68761905D01*
X142787200Y-68761905D02*
X142739580Y-68714286D01*
X161472857Y-103179580D02*
X161520476Y-103227200D01*
X161520476Y-103227200D02*
X161663333Y-103274819D01*
X161663333Y-103274819D02*
X161758571Y-103274819D01*
X161758571Y-103274819D02*
X161901428Y-103227200D01*
X161901428Y-103227200D02*
X161996666Y-103131961D01*
X161996666Y-103131961D02*
X162044285Y-103036723D01*
X162044285Y-103036723D02*
X162091904Y-102846247D01*
X162091904Y-102846247D02*
X162091904Y-102703390D01*
X162091904Y-102703390D02*
X162044285Y-102512914D01*
X162044285Y-102512914D02*
X161996666Y-102417676D01*
X161996666Y-102417676D02*
X161901428Y-102322438D01*
X161901428Y-102322438D02*
X161758571Y-102274819D01*
X161758571Y-102274819D02*
X161663333Y-102274819D01*
X161663333Y-102274819D02*
X161520476Y-102322438D01*
X161520476Y-102322438D02*
X161472857Y-102370057D01*
X160520476Y-103274819D02*
X161091904Y-103274819D01*
X160806190Y-103274819D02*
X160806190Y-102274819D01*
X160806190Y-102274819D02*
X160901428Y-102417676D01*
X160901428Y-102417676D02*
X160996666Y-102512914D01*
X160996666Y-102512914D02*
X161091904Y-102560533D01*
X159901428Y-102274819D02*
X159806190Y-102274819D01*
X159806190Y-102274819D02*
X159710952Y-102322438D01*
X159710952Y-102322438D02*
X159663333Y-102370057D01*
X159663333Y-102370057D02*
X159615714Y-102465295D01*
X159615714Y-102465295D02*
X159568095Y-102655771D01*
X159568095Y-102655771D02*
X159568095Y-102893866D01*
X159568095Y-102893866D02*
X159615714Y-103084342D01*
X159615714Y-103084342D02*
X159663333Y-103179580D01*
X159663333Y-103179580D02*
X159710952Y-103227200D01*
X159710952Y-103227200D02*
X159806190Y-103274819D01*
X159806190Y-103274819D02*
X159901428Y-103274819D01*
X159901428Y-103274819D02*
X159996666Y-103227200D01*
X159996666Y-103227200D02*
X160044285Y-103179580D01*
X160044285Y-103179580D02*
X160091904Y-103084342D01*
X160091904Y-103084342D02*
X160139523Y-102893866D01*
X160139523Y-102893866D02*
X160139523Y-102655771D01*
X160139523Y-102655771D02*
X160091904Y-102465295D01*
X160091904Y-102465295D02*
X160044285Y-102370057D01*
X160044285Y-102370057D02*
X159996666Y-102322438D01*
X159996666Y-102322438D02*
X159901428Y-102274819D01*
X148017857Y-102784580D02*
X148065476Y-102832200D01*
X148065476Y-102832200D02*
X148208333Y-102879819D01*
X148208333Y-102879819D02*
X148303571Y-102879819D01*
X148303571Y-102879819D02*
X148446428Y-102832200D01*
X148446428Y-102832200D02*
X148541666Y-102736961D01*
X148541666Y-102736961D02*
X148589285Y-102641723D01*
X148589285Y-102641723D02*
X148636904Y-102451247D01*
X148636904Y-102451247D02*
X148636904Y-102308390D01*
X148636904Y-102308390D02*
X148589285Y-102117914D01*
X148589285Y-102117914D02*
X148541666Y-102022676D01*
X148541666Y-102022676D02*
X148446428Y-101927438D01*
X148446428Y-101927438D02*
X148303571Y-101879819D01*
X148303571Y-101879819D02*
X148208333Y-101879819D01*
X148208333Y-101879819D02*
X148065476Y-101927438D01*
X148065476Y-101927438D02*
X148017857Y-101975057D01*
X147065476Y-102879819D02*
X147636904Y-102879819D01*
X147351190Y-102879819D02*
X147351190Y-101879819D01*
X147351190Y-101879819D02*
X147446428Y-102022676D01*
X147446428Y-102022676D02*
X147541666Y-102117914D01*
X147541666Y-102117914D02*
X147636904Y-102165533D01*
X146684523Y-101975057D02*
X146636904Y-101927438D01*
X146636904Y-101927438D02*
X146541666Y-101879819D01*
X146541666Y-101879819D02*
X146303571Y-101879819D01*
X146303571Y-101879819D02*
X146208333Y-101927438D01*
X146208333Y-101927438D02*
X146160714Y-101975057D01*
X146160714Y-101975057D02*
X146113095Y-102070295D01*
X146113095Y-102070295D02*
X146113095Y-102165533D01*
X146113095Y-102165533D02*
X146160714Y-102308390D01*
X146160714Y-102308390D02*
X146732142Y-102879819D01*
X146732142Y-102879819D02*
X146113095Y-102879819D01*
X117767857Y-102284580D02*
X117815476Y-102332200D01*
X117815476Y-102332200D02*
X117958333Y-102379819D01*
X117958333Y-102379819D02*
X118053571Y-102379819D01*
X118053571Y-102379819D02*
X118196428Y-102332200D01*
X118196428Y-102332200D02*
X118291666Y-102236961D01*
X118291666Y-102236961D02*
X118339285Y-102141723D01*
X118339285Y-102141723D02*
X118386904Y-101951247D01*
X118386904Y-101951247D02*
X118386904Y-101808390D01*
X118386904Y-101808390D02*
X118339285Y-101617914D01*
X118339285Y-101617914D02*
X118291666Y-101522676D01*
X118291666Y-101522676D02*
X118196428Y-101427438D01*
X118196428Y-101427438D02*
X118053571Y-101379819D01*
X118053571Y-101379819D02*
X117958333Y-101379819D01*
X117958333Y-101379819D02*
X117815476Y-101427438D01*
X117815476Y-101427438D02*
X117767857Y-101475057D01*
X116815476Y-102379819D02*
X117386904Y-102379819D01*
X117101190Y-102379819D02*
X117101190Y-101379819D01*
X117101190Y-101379819D02*
X117196428Y-101522676D01*
X117196428Y-101522676D02*
X117291666Y-101617914D01*
X117291666Y-101617914D02*
X117386904Y-101665533D01*
X115910714Y-101379819D02*
X116386904Y-101379819D01*
X116386904Y-101379819D02*
X116434523Y-101856009D01*
X116434523Y-101856009D02*
X116386904Y-101808390D01*
X116386904Y-101808390D02*
X116291666Y-101760771D01*
X116291666Y-101760771D02*
X116053571Y-101760771D01*
X116053571Y-101760771D02*
X115958333Y-101808390D01*
X115958333Y-101808390D02*
X115910714Y-101856009D01*
X115910714Y-101856009D02*
X115863095Y-101951247D01*
X115863095Y-101951247D02*
X115863095Y-102189342D01*
X115863095Y-102189342D02*
X115910714Y-102284580D01*
X115910714Y-102284580D02*
X115958333Y-102332200D01*
X115958333Y-102332200D02*
X116053571Y-102379819D01*
X116053571Y-102379819D02*
X116291666Y-102379819D01*
X116291666Y-102379819D02*
X116386904Y-102332200D01*
X116386904Y-102332200D02*
X116434523Y-102284580D01*
X130717857Y-96409580D02*
X130765476Y-96457200D01*
X130765476Y-96457200D02*
X130908333Y-96504819D01*
X130908333Y-96504819D02*
X131003571Y-96504819D01*
X131003571Y-96504819D02*
X131146428Y-96457200D01*
X131146428Y-96457200D02*
X131241666Y-96361961D01*
X131241666Y-96361961D02*
X131289285Y-96266723D01*
X131289285Y-96266723D02*
X131336904Y-96076247D01*
X131336904Y-96076247D02*
X131336904Y-95933390D01*
X131336904Y-95933390D02*
X131289285Y-95742914D01*
X131289285Y-95742914D02*
X131241666Y-95647676D01*
X131241666Y-95647676D02*
X131146428Y-95552438D01*
X131146428Y-95552438D02*
X131003571Y-95504819D01*
X131003571Y-95504819D02*
X130908333Y-95504819D01*
X130908333Y-95504819D02*
X130765476Y-95552438D01*
X130765476Y-95552438D02*
X130717857Y-95600057D01*
X129765476Y-96504819D02*
X130336904Y-96504819D01*
X130051190Y-96504819D02*
X130051190Y-95504819D01*
X130051190Y-95504819D02*
X130146428Y-95647676D01*
X130146428Y-95647676D02*
X130241666Y-95742914D01*
X130241666Y-95742914D02*
X130336904Y-95790533D01*
X129432142Y-95504819D02*
X128765476Y-95504819D01*
X128765476Y-95504819D02*
X129194047Y-96504819D01*
X194541666Y-67179819D02*
X194874999Y-66703628D01*
X195113094Y-67179819D02*
X195113094Y-66179819D01*
X195113094Y-66179819D02*
X194732142Y-66179819D01*
X194732142Y-66179819D02*
X194636904Y-66227438D01*
X194636904Y-66227438D02*
X194589285Y-66275057D01*
X194589285Y-66275057D02*
X194541666Y-66370295D01*
X194541666Y-66370295D02*
X194541666Y-66513152D01*
X194541666Y-66513152D02*
X194589285Y-66608390D01*
X194589285Y-66608390D02*
X194636904Y-66656009D01*
X194636904Y-66656009D02*
X194732142Y-66703628D01*
X194732142Y-66703628D02*
X195113094Y-66703628D01*
X193589285Y-67179819D02*
X194160713Y-67179819D01*
X193874999Y-67179819D02*
X193874999Y-66179819D01*
X193874999Y-66179819D02*
X193970237Y-66322676D01*
X193970237Y-66322676D02*
X194065475Y-66417914D01*
X194065475Y-66417914D02*
X194160713Y-66465533D01*
X191041666Y-67179819D02*
X191374999Y-66703628D01*
X191613094Y-67179819D02*
X191613094Y-66179819D01*
X191613094Y-66179819D02*
X191232142Y-66179819D01*
X191232142Y-66179819D02*
X191136904Y-66227438D01*
X191136904Y-66227438D02*
X191089285Y-66275057D01*
X191089285Y-66275057D02*
X191041666Y-66370295D01*
X191041666Y-66370295D02*
X191041666Y-66513152D01*
X191041666Y-66513152D02*
X191089285Y-66608390D01*
X191089285Y-66608390D02*
X191136904Y-66656009D01*
X191136904Y-66656009D02*
X191232142Y-66703628D01*
X191232142Y-66703628D02*
X191613094Y-66703628D01*
X190660713Y-66275057D02*
X190613094Y-66227438D01*
X190613094Y-66227438D02*
X190517856Y-66179819D01*
X190517856Y-66179819D02*
X190279761Y-66179819D01*
X190279761Y-66179819D02*
X190184523Y-66227438D01*
X190184523Y-66227438D02*
X190136904Y-66275057D01*
X190136904Y-66275057D02*
X190089285Y-66370295D01*
X190089285Y-66370295D02*
X190089285Y-66465533D01*
X190089285Y-66465533D02*
X190136904Y-66608390D01*
X190136904Y-66608390D02*
X190708332Y-67179819D01*
X190708332Y-67179819D02*
X190089285Y-67179819D01*
X109179819Y-63633333D02*
X108703628Y-63300000D01*
X109179819Y-63061905D02*
X108179819Y-63061905D01*
X108179819Y-63061905D02*
X108179819Y-63442857D01*
X108179819Y-63442857D02*
X108227438Y-63538095D01*
X108227438Y-63538095D02*
X108275057Y-63585714D01*
X108275057Y-63585714D02*
X108370295Y-63633333D01*
X108370295Y-63633333D02*
X108513152Y-63633333D01*
X108513152Y-63633333D02*
X108608390Y-63585714D01*
X108608390Y-63585714D02*
X108656009Y-63538095D01*
X108656009Y-63538095D02*
X108703628Y-63442857D01*
X108703628Y-63442857D02*
X108703628Y-63061905D01*
X108179819Y-63966667D02*
X108179819Y-64585714D01*
X108179819Y-64585714D02*
X108560771Y-64252381D01*
X108560771Y-64252381D02*
X108560771Y-64395238D01*
X108560771Y-64395238D02*
X108608390Y-64490476D01*
X108608390Y-64490476D02*
X108656009Y-64538095D01*
X108656009Y-64538095D02*
X108751247Y-64585714D01*
X108751247Y-64585714D02*
X108989342Y-64585714D01*
X108989342Y-64585714D02*
X109084580Y-64538095D01*
X109084580Y-64538095D02*
X109132200Y-64490476D01*
X109132200Y-64490476D02*
X109179819Y-64395238D01*
X109179819Y-64395238D02*
X109179819Y-64109524D01*
X109179819Y-64109524D02*
X109132200Y-64014286D01*
X109132200Y-64014286D02*
X109084580Y-63966667D01*
X113179819Y-63633333D02*
X112703628Y-63300000D01*
X113179819Y-63061905D02*
X112179819Y-63061905D01*
X112179819Y-63061905D02*
X112179819Y-63442857D01*
X112179819Y-63442857D02*
X112227438Y-63538095D01*
X112227438Y-63538095D02*
X112275057Y-63585714D01*
X112275057Y-63585714D02*
X112370295Y-63633333D01*
X112370295Y-63633333D02*
X112513152Y-63633333D01*
X112513152Y-63633333D02*
X112608390Y-63585714D01*
X112608390Y-63585714D02*
X112656009Y-63538095D01*
X112656009Y-63538095D02*
X112703628Y-63442857D01*
X112703628Y-63442857D02*
X112703628Y-63061905D01*
X112513152Y-64490476D02*
X113179819Y-64490476D01*
X112132200Y-64252381D02*
X112846485Y-64014286D01*
X112846485Y-64014286D02*
X112846485Y-64633333D01*
X148704819Y-133883333D02*
X148228628Y-133550000D01*
X148704819Y-133311905D02*
X147704819Y-133311905D01*
X147704819Y-133311905D02*
X147704819Y-133692857D01*
X147704819Y-133692857D02*
X147752438Y-133788095D01*
X147752438Y-133788095D02*
X147800057Y-133835714D01*
X147800057Y-133835714D02*
X147895295Y-133883333D01*
X147895295Y-133883333D02*
X148038152Y-133883333D01*
X148038152Y-133883333D02*
X148133390Y-133835714D01*
X148133390Y-133835714D02*
X148181009Y-133788095D01*
X148181009Y-133788095D02*
X148228628Y-133692857D01*
X148228628Y-133692857D02*
X148228628Y-133311905D01*
X147704819Y-134788095D02*
X147704819Y-134311905D01*
X147704819Y-134311905D02*
X148181009Y-134264286D01*
X148181009Y-134264286D02*
X148133390Y-134311905D01*
X148133390Y-134311905D02*
X148085771Y-134407143D01*
X148085771Y-134407143D02*
X148085771Y-134645238D01*
X148085771Y-134645238D02*
X148133390Y-134740476D01*
X148133390Y-134740476D02*
X148181009Y-134788095D01*
X148181009Y-134788095D02*
X148276247Y-134835714D01*
X148276247Y-134835714D02*
X148514342Y-134835714D01*
X148514342Y-134835714D02*
X148609580Y-134788095D01*
X148609580Y-134788095D02*
X148657200Y-134740476D01*
X148657200Y-134740476D02*
X148704819Y-134645238D01*
X148704819Y-134645238D02*
X148704819Y-134407143D01*
X148704819Y-134407143D02*
X148657200Y-134311905D01*
X148657200Y-134311905D02*
X148609580Y-134264286D01*
X154704819Y-133883333D02*
X154228628Y-133550000D01*
X154704819Y-133311905D02*
X153704819Y-133311905D01*
X153704819Y-133311905D02*
X153704819Y-133692857D01*
X153704819Y-133692857D02*
X153752438Y-133788095D01*
X153752438Y-133788095D02*
X153800057Y-133835714D01*
X153800057Y-133835714D02*
X153895295Y-133883333D01*
X153895295Y-133883333D02*
X154038152Y-133883333D01*
X154038152Y-133883333D02*
X154133390Y-133835714D01*
X154133390Y-133835714D02*
X154181009Y-133788095D01*
X154181009Y-133788095D02*
X154228628Y-133692857D01*
X154228628Y-133692857D02*
X154228628Y-133311905D01*
X153704819Y-134740476D02*
X153704819Y-134550000D01*
X153704819Y-134550000D02*
X153752438Y-134454762D01*
X153752438Y-134454762D02*
X153800057Y-134407143D01*
X153800057Y-134407143D02*
X153942914Y-134311905D01*
X153942914Y-134311905D02*
X154133390Y-134264286D01*
X154133390Y-134264286D02*
X154514342Y-134264286D01*
X154514342Y-134264286D02*
X154609580Y-134311905D01*
X154609580Y-134311905D02*
X154657200Y-134359524D01*
X154657200Y-134359524D02*
X154704819Y-134454762D01*
X154704819Y-134454762D02*
X154704819Y-134645238D01*
X154704819Y-134645238D02*
X154657200Y-134740476D01*
X154657200Y-134740476D02*
X154609580Y-134788095D01*
X154609580Y-134788095D02*
X154514342Y-134835714D01*
X154514342Y-134835714D02*
X154276247Y-134835714D01*
X154276247Y-134835714D02*
X154181009Y-134788095D01*
X154181009Y-134788095D02*
X154133390Y-134740476D01*
X154133390Y-134740476D02*
X154085771Y-134645238D01*
X154085771Y-134645238D02*
X154085771Y-134454762D01*
X154085771Y-134454762D02*
X154133390Y-134359524D01*
X154133390Y-134359524D02*
X154181009Y-134311905D01*
X154181009Y-134311905D02*
X154276247Y-134264286D01*
X154266666Y-79804819D02*
X154599999Y-79328628D01*
X154838094Y-79804819D02*
X154838094Y-78804819D01*
X154838094Y-78804819D02*
X154457142Y-78804819D01*
X154457142Y-78804819D02*
X154361904Y-78852438D01*
X154361904Y-78852438D02*
X154314285Y-78900057D01*
X154314285Y-78900057D02*
X154266666Y-78995295D01*
X154266666Y-78995295D02*
X154266666Y-79138152D01*
X154266666Y-79138152D02*
X154314285Y-79233390D01*
X154314285Y-79233390D02*
X154361904Y-79281009D01*
X154361904Y-79281009D02*
X154457142Y-79328628D01*
X154457142Y-79328628D02*
X154838094Y-79328628D01*
X153933332Y-78804819D02*
X153266666Y-78804819D01*
X153266666Y-78804819D02*
X153695237Y-79804819D01*
X152054819Y-74195833D02*
X151578628Y-73862500D01*
X152054819Y-73624405D02*
X151054819Y-73624405D01*
X151054819Y-73624405D02*
X151054819Y-74005357D01*
X151054819Y-74005357D02*
X151102438Y-74100595D01*
X151102438Y-74100595D02*
X151150057Y-74148214D01*
X151150057Y-74148214D02*
X151245295Y-74195833D01*
X151245295Y-74195833D02*
X151388152Y-74195833D01*
X151388152Y-74195833D02*
X151483390Y-74148214D01*
X151483390Y-74148214D02*
X151531009Y-74100595D01*
X151531009Y-74100595D02*
X151578628Y-74005357D01*
X151578628Y-74005357D02*
X151578628Y-73624405D01*
X151483390Y-74767262D02*
X151435771Y-74672024D01*
X151435771Y-74672024D02*
X151388152Y-74624405D01*
X151388152Y-74624405D02*
X151292914Y-74576786D01*
X151292914Y-74576786D02*
X151245295Y-74576786D01*
X151245295Y-74576786D02*
X151150057Y-74624405D01*
X151150057Y-74624405D02*
X151102438Y-74672024D01*
X151102438Y-74672024D02*
X151054819Y-74767262D01*
X151054819Y-74767262D02*
X151054819Y-74957738D01*
X151054819Y-74957738D02*
X151102438Y-75052976D01*
X151102438Y-75052976D02*
X151150057Y-75100595D01*
X151150057Y-75100595D02*
X151245295Y-75148214D01*
X151245295Y-75148214D02*
X151292914Y-75148214D01*
X151292914Y-75148214D02*
X151388152Y-75100595D01*
X151388152Y-75100595D02*
X151435771Y-75052976D01*
X151435771Y-75052976D02*
X151483390Y-74957738D01*
X151483390Y-74957738D02*
X151483390Y-74767262D01*
X151483390Y-74767262D02*
X151531009Y-74672024D01*
X151531009Y-74672024D02*
X151578628Y-74624405D01*
X151578628Y-74624405D02*
X151673866Y-74576786D01*
X151673866Y-74576786D02*
X151864342Y-74576786D01*
X151864342Y-74576786D02*
X151959580Y-74624405D01*
X151959580Y-74624405D02*
X152007200Y-74672024D01*
X152007200Y-74672024D02*
X152054819Y-74767262D01*
X152054819Y-74767262D02*
X152054819Y-74957738D01*
X152054819Y-74957738D02*
X152007200Y-75052976D01*
X152007200Y-75052976D02*
X151959580Y-75100595D01*
X151959580Y-75100595D02*
X151864342Y-75148214D01*
X151864342Y-75148214D02*
X151673866Y-75148214D01*
X151673866Y-75148214D02*
X151578628Y-75100595D01*
X151578628Y-75100595D02*
X151531009Y-75052976D01*
X151531009Y-75052976D02*
X151483390Y-74957738D01*
X120867857Y-91079819D02*
X121201190Y-90603628D01*
X121439285Y-91079819D02*
X121439285Y-90079819D01*
X121439285Y-90079819D02*
X121058333Y-90079819D01*
X121058333Y-90079819D02*
X120963095Y-90127438D01*
X120963095Y-90127438D02*
X120915476Y-90175057D01*
X120915476Y-90175057D02*
X120867857Y-90270295D01*
X120867857Y-90270295D02*
X120867857Y-90413152D01*
X120867857Y-90413152D02*
X120915476Y-90508390D01*
X120915476Y-90508390D02*
X120963095Y-90556009D01*
X120963095Y-90556009D02*
X121058333Y-90603628D01*
X121058333Y-90603628D02*
X121439285Y-90603628D01*
X119915476Y-91079819D02*
X120486904Y-91079819D01*
X120201190Y-91079819D02*
X120201190Y-90079819D01*
X120201190Y-90079819D02*
X120296428Y-90222676D01*
X120296428Y-90222676D02*
X120391666Y-90317914D01*
X120391666Y-90317914D02*
X120486904Y-90365533D01*
X119058333Y-90079819D02*
X119248809Y-90079819D01*
X119248809Y-90079819D02*
X119344047Y-90127438D01*
X119344047Y-90127438D02*
X119391666Y-90175057D01*
X119391666Y-90175057D02*
X119486904Y-90317914D01*
X119486904Y-90317914D02*
X119534523Y-90508390D01*
X119534523Y-90508390D02*
X119534523Y-90889342D01*
X119534523Y-90889342D02*
X119486904Y-90984580D01*
X119486904Y-90984580D02*
X119439285Y-91032200D01*
X119439285Y-91032200D02*
X119344047Y-91079819D01*
X119344047Y-91079819D02*
X119153571Y-91079819D01*
X119153571Y-91079819D02*
X119058333Y-91032200D01*
X119058333Y-91032200D02*
X119010714Y-90984580D01*
X119010714Y-90984580D02*
X118963095Y-90889342D01*
X118963095Y-90889342D02*
X118963095Y-90651247D01*
X118963095Y-90651247D02*
X119010714Y-90556009D01*
X119010714Y-90556009D02*
X119058333Y-90508390D01*
X119058333Y-90508390D02*
X119153571Y-90460771D01*
X119153571Y-90460771D02*
X119344047Y-90460771D01*
X119344047Y-90460771D02*
X119439285Y-90508390D01*
X119439285Y-90508390D02*
X119486904Y-90556009D01*
X119486904Y-90556009D02*
X119534523Y-90651247D01*
X158804819Y-99038095D02*
X159614342Y-99038095D01*
X159614342Y-99038095D02*
X159709580Y-99085714D01*
X159709580Y-99085714D02*
X159757200Y-99133333D01*
X159757200Y-99133333D02*
X159804819Y-99228571D01*
X159804819Y-99228571D02*
X159804819Y-99419047D01*
X159804819Y-99419047D02*
X159757200Y-99514285D01*
X159757200Y-99514285D02*
X159709580Y-99561904D01*
X159709580Y-99561904D02*
X159614342Y-99609523D01*
X159614342Y-99609523D02*
X158804819Y-99609523D01*
X159233390Y-100228571D02*
X159185771Y-100133333D01*
X159185771Y-100133333D02*
X159138152Y-100085714D01*
X159138152Y-100085714D02*
X159042914Y-100038095D01*
X159042914Y-100038095D02*
X158995295Y-100038095D01*
X158995295Y-100038095D02*
X158900057Y-100085714D01*
X158900057Y-100085714D02*
X158852438Y-100133333D01*
X158852438Y-100133333D02*
X158804819Y-100228571D01*
X158804819Y-100228571D02*
X158804819Y-100419047D01*
X158804819Y-100419047D02*
X158852438Y-100514285D01*
X158852438Y-100514285D02*
X158900057Y-100561904D01*
X158900057Y-100561904D02*
X158995295Y-100609523D01*
X158995295Y-100609523D02*
X159042914Y-100609523D01*
X159042914Y-100609523D02*
X159138152Y-100561904D01*
X159138152Y-100561904D02*
X159185771Y-100514285D01*
X159185771Y-100514285D02*
X159233390Y-100419047D01*
X159233390Y-100419047D02*
X159233390Y-100228571D01*
X159233390Y-100228571D02*
X159281009Y-100133333D01*
X159281009Y-100133333D02*
X159328628Y-100085714D01*
X159328628Y-100085714D02*
X159423866Y-100038095D01*
X159423866Y-100038095D02*
X159614342Y-100038095D01*
X159614342Y-100038095D02*
X159709580Y-100085714D01*
X159709580Y-100085714D02*
X159757200Y-100133333D01*
X159757200Y-100133333D02*
X159804819Y-100228571D01*
X159804819Y-100228571D02*
X159804819Y-100419047D01*
X159804819Y-100419047D02*
X159757200Y-100514285D01*
X159757200Y-100514285D02*
X159709580Y-100561904D01*
X159709580Y-100561904D02*
X159614342Y-100609523D01*
X159614342Y-100609523D02*
X159423866Y-100609523D01*
X159423866Y-100609523D02*
X159328628Y-100561904D01*
X159328628Y-100561904D02*
X159281009Y-100514285D01*
X159281009Y-100514285D02*
X159233390Y-100419047D01*
X110686904Y-58779819D02*
X110686904Y-59589342D01*
X110686904Y-59589342D02*
X110639285Y-59684580D01*
X110639285Y-59684580D02*
X110591666Y-59732200D01*
X110591666Y-59732200D02*
X110496428Y-59779819D01*
X110496428Y-59779819D02*
X110305952Y-59779819D01*
X110305952Y-59779819D02*
X110210714Y-59732200D01*
X110210714Y-59732200D02*
X110163095Y-59684580D01*
X110163095Y-59684580D02*
X110115476Y-59589342D01*
X110115476Y-59589342D02*
X110115476Y-58779819D01*
X109686904Y-58875057D02*
X109639285Y-58827438D01*
X109639285Y-58827438D02*
X109544047Y-58779819D01*
X109544047Y-58779819D02*
X109305952Y-58779819D01*
X109305952Y-58779819D02*
X109210714Y-58827438D01*
X109210714Y-58827438D02*
X109163095Y-58875057D01*
X109163095Y-58875057D02*
X109115476Y-58970295D01*
X109115476Y-58970295D02*
X109115476Y-59065533D01*
X109115476Y-59065533D02*
X109163095Y-59208390D01*
X109163095Y-59208390D02*
X109734523Y-59779819D01*
X109734523Y-59779819D02*
X109115476Y-59779819D01*
D11*
X113581895Y-57730312D02*
X113581895Y-57273169D01*
X113581895Y-57501741D02*
X112781895Y-57501741D01*
X112781895Y-57501741D02*
X112896180Y-57425550D01*
X112896180Y-57425550D02*
X112972371Y-57349360D01*
X112972371Y-57349360D02*
X113010466Y-57273169D01*
D10*
X151761904Y-136354819D02*
X151761904Y-137164342D01*
X151761904Y-137164342D02*
X151714285Y-137259580D01*
X151714285Y-137259580D02*
X151666666Y-137307200D01*
X151666666Y-137307200D02*
X151571428Y-137354819D01*
X151571428Y-137354819D02*
X151380952Y-137354819D01*
X151380952Y-137354819D02*
X151285714Y-137307200D01*
X151285714Y-137307200D02*
X151238095Y-137259580D01*
X151238095Y-137259580D02*
X151190476Y-137164342D01*
X151190476Y-137164342D02*
X151190476Y-136354819D01*
X150809523Y-136354819D02*
X150190476Y-136354819D01*
X150190476Y-136354819D02*
X150523809Y-136735771D01*
X150523809Y-136735771D02*
X150380952Y-136735771D01*
X150380952Y-136735771D02*
X150285714Y-136783390D01*
X150285714Y-136783390D02*
X150238095Y-136831009D01*
X150238095Y-136831009D02*
X150190476Y-136926247D01*
X150190476Y-136926247D02*
X150190476Y-137164342D01*
X150190476Y-137164342D02*
X150238095Y-137259580D01*
X150238095Y-137259580D02*
X150285714Y-137307200D01*
X150285714Y-137307200D02*
X150380952Y-137354819D01*
X150380952Y-137354819D02*
X150666666Y-137354819D01*
X150666666Y-137354819D02*
X150761904Y-137307200D01*
X150761904Y-137307200D02*
X150809523Y-137259580D01*
D11*
X154656895Y-138055312D02*
X154656895Y-137598169D01*
X154656895Y-137826741D02*
X153856895Y-137826741D01*
X153856895Y-137826741D02*
X153971180Y-137750550D01*
X153971180Y-137750550D02*
X154047371Y-137674360D01*
X154047371Y-137674360D02*
X154085466Y-137598169D01*
D10*
X124386904Y-98379819D02*
X124386904Y-99189342D01*
X124386904Y-99189342D02*
X124339285Y-99284580D01*
X124339285Y-99284580D02*
X124291666Y-99332200D01*
X124291666Y-99332200D02*
X124196428Y-99379819D01*
X124196428Y-99379819D02*
X124005952Y-99379819D01*
X124005952Y-99379819D02*
X123910714Y-99332200D01*
X123910714Y-99332200D02*
X123863095Y-99284580D01*
X123863095Y-99284580D02*
X123815476Y-99189342D01*
X123815476Y-99189342D02*
X123815476Y-98379819D01*
X123291666Y-99379819D02*
X123101190Y-99379819D01*
X123101190Y-99379819D02*
X123005952Y-99332200D01*
X123005952Y-99332200D02*
X122958333Y-99284580D01*
X122958333Y-99284580D02*
X122863095Y-99141723D01*
X122863095Y-99141723D02*
X122815476Y-98951247D01*
X122815476Y-98951247D02*
X122815476Y-98570295D01*
X122815476Y-98570295D02*
X122863095Y-98475057D01*
X122863095Y-98475057D02*
X122910714Y-98427438D01*
X122910714Y-98427438D02*
X123005952Y-98379819D01*
X123005952Y-98379819D02*
X123196428Y-98379819D01*
X123196428Y-98379819D02*
X123291666Y-98427438D01*
X123291666Y-98427438D02*
X123339285Y-98475057D01*
X123339285Y-98475057D02*
X123386904Y-98570295D01*
X123386904Y-98570295D02*
X123386904Y-98808390D01*
X123386904Y-98808390D02*
X123339285Y-98903628D01*
X123339285Y-98903628D02*
X123291666Y-98951247D01*
X123291666Y-98951247D02*
X123196428Y-98998866D01*
X123196428Y-98998866D02*
X123005952Y-98998866D01*
X123005952Y-98998866D02*
X122910714Y-98951247D01*
X122910714Y-98951247D02*
X122863095Y-98903628D01*
X122863095Y-98903628D02*
X122815476Y-98808390D01*
X200186904Y-58829819D02*
X200186904Y-59639342D01*
X200186904Y-59639342D02*
X200139285Y-59734580D01*
X200139285Y-59734580D02*
X200091666Y-59782200D01*
X200091666Y-59782200D02*
X199996428Y-59829819D01*
X199996428Y-59829819D02*
X199805952Y-59829819D01*
X199805952Y-59829819D02*
X199710714Y-59782200D01*
X199710714Y-59782200D02*
X199663095Y-59734580D01*
X199663095Y-59734580D02*
X199615476Y-59639342D01*
X199615476Y-59639342D02*
X199615476Y-58829819D01*
X198615476Y-59829819D02*
X199186904Y-59829819D01*
X198901190Y-59829819D02*
X198901190Y-58829819D01*
X198901190Y-58829819D02*
X198996428Y-58972676D01*
X198996428Y-58972676D02*
X199091666Y-59067914D01*
X199091666Y-59067914D02*
X199186904Y-59115533D01*
D11*
X196581895Y-57730312D02*
X196581895Y-57273169D01*
X196581895Y-57501741D02*
X195781895Y-57501741D01*
X195781895Y-57501741D02*
X195896180Y-57425550D01*
X195896180Y-57425550D02*
X195972371Y-57349360D01*
X195972371Y-57349360D02*
X196010466Y-57273169D01*
D12*
%TO.C,C5*%
X141435000Y-68761252D02*
X141435000Y-68238748D01*
X139965000Y-68761252D02*
X139965000Y-68238748D01*
%TO.C,C10*%
X161565000Y-99558748D02*
X161565000Y-100081252D01*
X160095000Y-99558748D02*
X160095000Y-100081252D01*
%TO.C,C12*%
X148110000Y-99163748D02*
X148110000Y-99686252D01*
X146640000Y-99163748D02*
X146640000Y-99686252D01*
%TO.C,C15*%
X117860000Y-98663748D02*
X117860000Y-99186252D01*
X116390000Y-98663748D02*
X116390000Y-99186252D01*
%TO.C,C17*%
X130860000Y-99263748D02*
X130860000Y-99786252D01*
X129390000Y-99263748D02*
X129390000Y-99786252D01*
%TO.C,R1*%
X195110000Y-64202064D02*
X195110000Y-63747936D01*
X193640000Y-64202064D02*
X193640000Y-63747936D01*
%TO.C,R2*%
X191610000Y-64202064D02*
X191610000Y-63747936D01*
X190140000Y-64202064D02*
X190140000Y-63747936D01*
%TO.C,R3*%
X107810000Y-64027064D02*
X107810000Y-63572936D01*
X106340000Y-64027064D02*
X106340000Y-63572936D01*
%TO.C,R4*%
X111810000Y-64027064D02*
X111810000Y-63572936D01*
X110340000Y-64027064D02*
X110340000Y-63572936D01*
%TO.C,R5*%
X150735000Y-134427064D02*
X150735000Y-133972936D01*
X149265000Y-134427064D02*
X149265000Y-133972936D01*
%TO.C,R6*%
X153235000Y-133972936D02*
X153235000Y-134427064D01*
X151765000Y-133972936D02*
X151765000Y-134427064D01*
%TO.C,R7*%
X154327064Y-78235000D02*
X153872936Y-78235000D01*
X154327064Y-76765000D02*
X153872936Y-76765000D01*
%TO.C,R8*%
X153985000Y-74135436D02*
X153985000Y-74589564D01*
X152515000Y-74135436D02*
X152515000Y-74589564D01*
%TO.C,R16*%
X119997936Y-89710000D02*
X120452064Y-89710000D01*
X119997936Y-88240000D02*
X120452064Y-88240000D01*
D10*
%TO.C,U8*%
X149775000Y-96925000D02*
X150000000Y-96925000D01*
X149775000Y-102675000D02*
X149775000Y-96925000D01*
X149775000Y-102675000D02*
X150000000Y-102675000D01*
X158425000Y-96925000D02*
X158200000Y-96925000D01*
X158425000Y-102675000D02*
X158200000Y-102675000D01*
X158425000Y-102675000D02*
X158425000Y-96925000D01*
D12*
X158505000Y-103415000D02*
X158175000Y-103175000D01*
X158505000Y-102935000D01*
X158505000Y-103415000D01*
G36*
X158505000Y-103415000D02*
G01*
X158175000Y-103175000D01*
X158505000Y-102935000D01*
X158505000Y-103415000D01*
G37*
%TO.C,U2*%
X111875000Y-57375000D02*
X111875000Y-57575000D01*
X108055000Y-57375000D02*
X111865000Y-57375000D01*
X107685000Y-57655000D02*
X108055000Y-57375000D01*
X107495000Y-61355000D02*
X111875000Y-61355000D01*
X107495000Y-61355000D02*
X107495000Y-61055000D01*
%TO.C,U3*%
X152950000Y-137700000D02*
X152950000Y-137900000D01*
X149130000Y-137700000D02*
X152940000Y-137700000D01*
X148760000Y-137980000D02*
X149130000Y-137700000D01*
X148570000Y-141680000D02*
X152950000Y-141680000D01*
X148570000Y-141680000D02*
X148570000Y-141380000D01*
%TO.C,U9*%
X128005000Y-102840000D02*
X127675000Y-102600000D01*
X128005000Y-102360000D01*
X128005000Y-102840000D01*
G36*
X128005000Y-102840000D02*
G01*
X127675000Y-102600000D01*
X128005000Y-102360000D01*
X128005000Y-102840000D01*
G37*
D10*
X127925000Y-102100000D02*
X127925000Y-96350000D01*
X127925000Y-102100000D02*
X127700000Y-102100000D01*
X127925000Y-96350000D02*
X127700000Y-96350000D01*
X119275000Y-102100000D02*
X119500000Y-102100000D01*
X119275000Y-102100000D02*
X119275000Y-96350000D01*
X119275000Y-96350000D02*
X119500000Y-96350000D01*
D12*
%TO.C,U1*%
X194875000Y-57375000D02*
X194875000Y-57575000D01*
X191055000Y-57375000D02*
X194865000Y-57375000D01*
X190685000Y-57655000D02*
X191055000Y-57375000D01*
X190495000Y-61355000D02*
X194875000Y-61355000D01*
X190495000Y-61355000D02*
X190495000Y-61055000D01*
%TD*%
M02*
